<svg width="14" height="12" viewBox="0 0 14 12" fill="none" xmlns="http://www.w3.org/2000/svg">
<path d="M3.264 0.28C4.07467 0.28 4.72 0.552 5.2 1.096C5.69067 1.62933 5.936 2.33867 5.936 3.224C5.936 4.10933 5.69067 4.824 5.2 5.368C4.72 5.90133 4.07467 6.168 3.264 6.168C2.45333 6.168 1.80267 5.90133 1.312 5.368C0.832 4.824 0.592 4.10933 0.592 3.224C0.592 2.33867 0.832 1.62933 1.312 1.096C1.80267 0.552 2.45333 0.28 3.264 0.28ZM9.76 0.44H11.232L4.336 11H2.848L9.76 0.44ZM3.264 1.528C2.85867 1.528 2.544 1.67733 2.32 1.976C2.10667 2.264 2 2.68 2 3.224C2 3.75733 2.10667 4.17333 2.32 4.472C2.544 4.76 2.85867 4.904 3.264 4.904C3.68 4.904 3.99467 4.76 4.208 4.472C4.432 4.17333 4.544 3.75733 4.544 3.224C4.544 2.68 4.432 2.264 4.208 1.976C3.99467 1.67733 3.68 1.528 3.264 1.528ZM10.816 5.272C11.6267 5.272 12.272 5.544 12.752 6.088C13.2427 6.62133 13.488 7.33067 13.488 8.216C13.488 9.10133 13.2427 9.816 12.752 10.36C12.272 10.8933 11.6267 11.16 10.816 11.16C10.0053 11.16 9.35467 10.8933 8.864 10.36C8.384 9.816 8.144 9.10133 8.144 8.216C8.144 7.33067 8.384 6.62133 8.864 6.088C9.35467 5.544 10.0053 5.272 10.816 5.272ZM10.816 6.536C10.4107 6.536 10.096 6.68533 9.872 6.984C9.65867 7.272 9.552 7.68267 9.552 8.216C9.552 8.76 9.65867 9.18133 9.872 9.48C10.096 9.768 10.4107 9.912 10.816 9.912C11.232 9.912 11.5467 9.768 11.76 9.48C11.984 9.18133 12.096 8.76 12.096 8.216C12.096 7.68267 11.984 7.272 11.76 6.984C11.5467 6.68533 11.232 6.536 10.816 6.536Z" fill="#B6BFC2"/>
</svg>
