<svg width="120" height="120" viewBox="0 0 120 120" fill="none" xmlns="http://www.w3.org/2000/svg">
<path d="M12.1884 95.625V105L2.81342 95.625H12.1884Z" fill="white"/>
<path d="M29.0634 71.25V105H12.1884V95.625H2.81342V11.25H29.0634V71.25Z" fill="white"/>
<path opacity="0.2" d="M36.5634 112.5H102.188V106.875H104.063C107.175 106.875 109.688 104.363 109.688 101.25V112.5C109.688 115.613 107.175 118.125 104.063 118.125H34.6884C31.5756 118.125 29.0634 115.613 29.0634 112.5C29.0634 109.406 31.5756 106.875 34.6884 106.875H36.5634V112.5Z" fill="#C8A574"/>
<path d="M36.5634 106.875H102.188V112.5H36.5634V106.875Z" fill="white"/>
<path opacity="0.2" d="M117.188 11.25V35.625L109.688 43.125V11.25H117.188Z" fill="#C8A574"/>
<path d="M47.8134 46.9125H59.0634C59.0634 50.0253 56.532 52.5375 53.4384 52.5375C50.3256 52.5375 47.8134 50.0253 47.8134 46.9125Z" fill="white"/>
<path d="M81.5442 46.9125H92.7942C92.7942 50.0253 90.282 52.5375 87.1692 52.5375C84.0564 52.5375 81.5442 50.0253 81.5442 46.9125Z" fill="white"/>
<path opacity="0.2" d="M104.063 1.875H34.6884C31.5756 1.875 29.0634 4.38721 29.0634 7.5V112.5C29.0634 109.406 31.5756 106.875 34.6884 106.875H104.063C107.175 106.875 109.688 104.363 109.688 101.25V7.5C109.688 4.38721 107.175 1.875 104.063 1.875ZM53.4384 52.5375C50.3256 52.5375 47.8134 50.0253 47.8134 46.9125H59.0634C59.0634 50.0253 56.532 52.5375 53.4384 52.5375ZM87.1692 52.5375C84.0564 52.5375 81.5442 50.0253 81.5442 46.9125H92.7942C92.7942 50.0253 90.282 52.5375 87.1692 52.5375Z" fill="#C8A574"/>
<path d="M34.6884 120C30.552 120 27.1884 116.636 27.1884 112.5C27.1884 108.364 30.552 105 34.6884 105C35.7248 105 36.5634 105.838 36.5634 106.875C36.5634 107.912 35.7248 108.75 34.6884 108.75C32.6202 108.75 30.9384 110.432 30.9384 112.5C30.9384 114.568 32.6202 116.25 34.6884 116.25C35.7248 116.25 36.5634 117.088 36.5634 118.125C36.5634 119.162 35.7248 120 34.6884 120Z" fill="#C8A574"/>
<path d="M104.063 108.75H34.6884C33.6511 108.75 32.8134 107.912 32.8134 106.875C32.8134 105.838 33.6511 105 34.6884 105H104.063C105.1 105 105.938 105.838 105.938 106.875C105.938 107.912 105.1 108.75 104.063 108.75Z" fill="#C8A574"/>
<path d="M104.063 120H34.6884C33.6511 120 32.8134 119.162 32.8134 118.125C32.8134 117.088 33.6511 116.25 34.6884 116.25H104.063C105.1 116.25 105.938 117.088 105.938 118.125C105.938 119.162 105.1 120 104.063 120Z" fill="#C8A574"/>
<path d="M104.063 108.75C103.026 108.75 102.188 107.912 102.188 106.875C102.188 105.838 103.026 105 104.063 105C106.131 105 107.813 103.318 107.813 101.25C107.813 100.213 108.651 99.375 109.688 99.375C110.725 99.375 111.563 100.213 111.563 101.25C111.563 105.386 108.199 108.75 104.063 108.75Z" fill="#C8A574"/>
<path d="M109.688 9.375C108.651 9.375 107.813 8.53455 107.813 7.5C107.813 5.43182 106.131 3.75 104.063 3.75C103.026 3.75 102.188 2.90955 102.188 1.875C102.188 0.840454 103.026 0 104.063 0C108.199 0 111.563 3.36365 111.563 7.5C111.563 8.53455 110.725 9.375 109.688 9.375Z" fill="#C8A574"/>
<path d="M29.0634 9.375C28.0261 9.375 27.1884 8.53455 27.1884 7.5C27.1884 3.36365 30.552 0 34.6884 0C35.7248 0 36.5634 0.840454 36.5634 1.875C36.5634 2.90955 35.7248 3.75 34.6884 3.75C32.6202 3.75 30.9384 5.43182 30.9384 7.5C30.9384 8.53455 30.0998 9.375 29.0634 9.375Z" fill="#C8A574"/>
<path d="M104.063 120C103.026 120 102.188 119.162 102.188 118.125C102.188 117.088 103.026 116.25 104.063 116.25C106.131 116.25 107.813 114.568 107.813 112.5C107.813 111.463 108.651 110.625 109.688 110.625C110.725 110.625 111.563 111.463 111.563 112.5C111.563 116.636 108.199 120 104.063 120Z" fill="#C8A574"/>
<path d="M109.688 45C109.208 45 108.728 44.816 108.363 44.4507C107.629 43.7173 107.629 42.5327 108.363 41.7993L115.313 34.8486V13.125H109.688C108.651 13.125 107.813 12.2845 107.813 11.25C107.813 10.2155 108.651 9.375 109.688 9.375H117.188C118.225 9.375 119.063 10.2155 119.063 11.25V35.625C119.063 36.1221 118.866 36.6 118.513 36.9507L111.013 44.4507C110.648 44.816 110.168 45 109.688 45Z" fill="#C8A574"/>
<path d="M104.063 3.75H34.6884C33.6511 3.75 32.8134 2.90955 32.8134 1.875C32.8134 0.840454 33.6511 0 34.6884 0H104.063C105.1 0 105.938 0.840454 105.938 1.875C105.938 2.90955 105.1 3.75 104.063 3.75Z" fill="#C8A574"/>
<path d="M29.0634 114.375C28.0261 114.375 27.1884 113.537 27.1884 112.5V7.5C27.1884 6.46545 28.0261 5.625 29.0634 5.625C30.0998 5.625 30.9384 6.46545 30.9384 7.5V112.5C30.9384 113.537 30.0998 114.375 29.0634 114.375Z" fill="#C8A574"/>
<path d="M102.188 114.375H36.5634C35.5261 114.375 34.6884 113.537 34.6884 112.5C34.6884 111.463 35.5261 110.625 36.5634 110.625H102.188C103.225 110.625 104.063 111.463 104.063 112.5C104.063 113.537 103.225 114.375 102.188 114.375Z" fill="#C8A574"/>
<path d="M102.188 114.375C101.151 114.375 100.313 113.537 100.313 112.5V106.875C100.313 105.838 101.151 105 102.188 105C103.225 105 104.063 105.838 104.063 106.875V112.5C104.063 113.537 103.225 114.375 102.188 114.375Z" fill="#C8A574"/>
<path d="M36.5634 114.375C35.5261 114.375 34.6884 113.537 34.6884 112.5V106.875C34.6884 105.838 35.5261 105 36.5634 105C37.5998 105 38.4384 105.838 38.4384 106.875V112.5C38.4384 113.537 37.5998 114.375 36.5634 114.375Z" fill="#C8A574"/>
<path d="M109.688 114.375C108.651 114.375 107.813 113.537 107.813 112.5V7.5C107.813 6.46545 108.651 5.625 109.688 5.625C110.725 5.625 111.563 6.46545 111.563 7.5V112.5C111.563 113.537 110.725 114.375 109.688 114.375Z" fill="#C8A574"/>
<path d="M29.0607 13.125H2.81345C1.77615 13.125 0.938446 12.2845 0.938446 11.25C0.938446 10.2155 1.77615 9.375 2.81345 9.375H29.0607C30.098 9.375 30.9357 10.2155 30.9357 11.25C30.9357 12.2845 30.098 13.125 29.0607 13.125Z" fill="#C8A574"/>
<path d="M29.0606 106.875H12.1884C11.1511 106.875 10.3134 106.037 10.3134 105C10.3134 103.963 11.1511 103.125 12.1884 103.125H29.0606C30.0979 103.125 30.9356 103.963 30.9356 105C30.9356 106.037 30.0979 106.875 29.0606 106.875Z" fill="#C8A574"/>
<path d="M2.81345 97.5C1.77615 97.5 0.938446 96.6623 0.938446 95.625V11.25C0.938446 10.2155 1.77615 9.375 2.81345 9.375C3.84982 9.375 4.68845 10.2155 4.68845 11.25V95.625C4.68845 96.6623 3.84982 97.5 2.81345 97.5Z" fill="#C8A574"/>
<path d="M12.1884 106.875C11.7078 106.875 11.228 106.691 10.8627 106.326L1.48774 96.9507C0.754402 96.2174 0.754402 95.0327 1.48774 94.2993C2.22016 93.566 3.40577 93.566 4.13819 94.2993L13.5132 103.674C14.2465 104.408 14.2465 105.592 13.5132 106.326C13.1479 106.691 12.6682 106.875 12.1884 106.875Z" fill="#C8A574"/>
<path d="M12.1884 106.875C11.1511 106.875 10.3134 106.037 10.3134 105V95.625C10.3134 94.5877 11.1511 93.75 12.1884 93.75C13.2248 93.75 14.0634 94.5877 14.0634 95.625V105C14.0634 106.037 13.2248 106.875 12.1884 106.875Z" fill="#C8A574"/>
<path d="M12.1884 97.5H2.81345C1.77615 97.5 0.938446 96.6623 0.938446 95.625C0.938446 94.5877 1.77615 93.75 2.81345 93.75H12.1884C13.2248 93.75 14.0634 94.5877 14.0634 95.625C14.0634 96.6623 13.2248 97.5 12.1884 97.5Z" fill="#C8A574"/>
<path d="M29.0634 39.375H15.9384C14.9011 39.375 14.0634 38.5345 14.0634 37.5C14.0634 36.4655 14.9011 35.625 15.9384 35.625H29.0634C30.0998 35.625 30.9384 36.4655 30.9384 37.5C30.9384 38.5345 30.0998 39.375 29.0634 39.375Z" fill="#C8A574"/>
<path d="M29.0634 50.625H15.9384C14.9011 50.625 14.0634 49.7845 14.0634 48.75C14.0634 47.7155 14.9011 46.875 15.9384 46.875H29.0634C30.0998 46.875 30.9384 47.7155 30.9384 48.75C30.9384 49.7845 30.0998 50.625 29.0634 50.625Z" fill="#C8A574"/>
<path d="M29.0634 61.875H15.9384C14.9011 61.875 14.0634 61.0345 14.0634 60C14.0634 58.9655 14.9011 58.125 15.9384 58.125H29.0634C30.0998 58.125 30.9384 58.9655 30.9384 60C30.9384 61.0345 30.0998 61.875 29.0634 61.875Z" fill="#C8A574"/>
<path d="M29.0634 73.125H15.9384C14.9011 73.125 14.0634 72.2873 14.0634 71.25C14.0634 70.2127 14.9011 69.375 15.9384 69.375H29.0634C30.0998 69.375 30.9384 70.2127 30.9384 71.25C30.9384 72.2873 30.0998 73.125 29.0634 73.125Z" fill="#C8A574"/>
<path d="M87.1747 31.9089H53.4283C52.392 31.9089 51.5533 31.0684 51.5533 30.0339C51.5533 28.9984 52.392 28.1589 53.4283 28.1589H87.1747C88.212 28.1589 89.0497 28.9984 89.0497 30.0339C89.0497 31.0684 88.212 31.9089 87.1747 31.9089Z" fill="#C8A574"/>
<path d="M70.3033 69.4162C69.267 69.4162 68.4283 68.5785 68.4283 67.5412V24.4089C68.4283 23.3734 69.267 22.5339 70.3033 22.5339C71.3406 22.5339 72.1784 23.3734 72.1784 24.4089V67.543C72.1784 68.5785 71.3406 69.4162 70.3033 69.4162Z" fill="#C8A574"/>
<path d="M85.3033 69.4162H55.3033C54.267 69.4162 53.4283 68.5785 53.4283 67.5412C53.4283 66.5048 54.267 65.6662 55.3033 65.6662H85.3033C86.3406 65.6662 87.1783 66.5048 87.1783 67.5412C87.1783 68.5785 86.3406 69.4162 85.3033 69.4162Z" fill="#C8A574"/>
<path d="M92.8107 82.5357H47.796C46.7596 82.5357 45.921 81.6971 45.921 80.6607C45.921 79.6234 46.7596 78.7857 47.796 78.7857H92.8107C93.8479 78.7857 94.6857 79.6234 94.6857 80.6607C94.6857 81.6971 93.8479 82.5357 92.8107 82.5357Z" fill="#C8A574"/>
<path d="M81.5606 88.1589H59.0497C58.0133 88.1589 57.1747 87.3203 57.1747 86.2839C57.1747 85.2466 58.0133 84.4089 59.0497 84.4089H81.5606C82.5979 84.4089 83.4356 85.2466 83.4356 86.2839C83.4356 87.3203 82.5979 88.1589 81.5606 88.1589Z" fill="#C8A574"/>
<path d="M53.4283 54.4125C49.292 54.4125 45.9283 51.0489 45.9283 46.9125C45.9283 45.8771 46.767 45.0375 47.8033 45.0375C48.8406 45.0375 49.6783 45.8771 49.6783 46.9125C49.6783 48.9807 51.3602 50.6625 53.4283 50.6625C55.4965 50.6625 57.1783 48.9807 57.1783 46.9125C57.1783 45.8771 58.017 45.0375 59.0533 45.0375C60.0906 45.0375 60.9283 45.8771 60.9283 46.9125C60.9283 51.0471 57.5647 54.4125 53.4283 54.4125Z" fill="#C8A574"/>
<path d="M59.0533 48.7875H47.8033C46.767 48.7875 45.9283 47.9471 45.9283 46.9125C45.9283 45.8771 46.767 45.0375 47.8033 45.0375H59.0533C60.0906 45.0375 60.9283 45.8771 60.9283 46.9125C60.9283 47.9471 60.0906 48.7875 59.0533 48.7875Z" fill="#C8A574"/>
<path d="M47.8033 48.7875C47.6083 48.7875 47.4078 48.7555 47.211 48.6896C46.2305 48.3618 45.6976 47.3007 46.0263 46.3184L51.6513 29.4397C51.9791 28.4592 53.031 27.9227 54.0225 28.2541C55.004 28.5828 55.5359 29.6439 55.2081 30.6262L49.5831 47.5049C49.3204 48.2904 48.5889 48.7875 47.8033 48.7875Z" fill="#C8A574"/>
<path d="M59.0533 48.7875C58.2678 48.7875 57.5363 48.2904 57.2763 47.5049L51.6513 30.6262C51.3226 29.6438 51.8536 28.5827 52.836 28.2541C53.8238 27.9245 54.8812 28.4591 55.2081 29.4397L60.8331 46.3184C61.1608 47.3007 60.6307 48.3618 59.6475 48.6896C59.4488 48.7555 59.2501 48.7875 59.0533 48.7875Z" fill="#C8A574"/>
<path d="M87.1747 54.4125C83.0383 54.4125 79.6747 51.0489 79.6747 46.9125C79.6747 45.8771 80.5133 45.0375 81.5497 45.0375C82.587 45.0375 83.4247 45.8771 83.4247 46.9125C83.4247 48.9807 85.1065 50.6625 87.1747 50.6625C89.2429 50.6625 90.9247 48.9807 90.9247 46.9125C90.9247 45.8771 91.7633 45.0375 92.7997 45.0375C93.837 45.0375 94.6747 45.8771 94.6747 46.9125C94.6747 51.0471 91.311 54.4125 87.1747 54.4125Z" fill="#C8A574"/>
<path d="M92.7997 48.7875H81.5497C80.5133 48.7875 79.6747 47.9471 79.6747 46.9125C79.6747 45.8771 80.5133 45.0375 81.5497 45.0375H92.7997C93.837 45.0375 94.6747 45.8771 94.6747 46.9125C94.6747 47.9471 93.837 48.7875 92.7997 48.7875Z" fill="#C8A574"/>
<path d="M81.5497 48.7875C81.3547 48.7875 81.1542 48.7555 80.9574 48.6896C79.9768 48.3618 79.444 47.3007 79.7727 46.3184L85.3977 29.4397C85.7254 28.4592 86.7755 27.9227 87.7689 28.2541C88.7494 28.5828 89.2822 29.6439 88.9545 30.6262L83.3295 47.5049C83.0667 48.2904 82.3352 48.7875 81.5497 48.7875Z" fill="#C8A574"/>
<path d="M92.7996 48.7875C92.0141 48.7875 91.2826 48.2904 91.0226 47.5049L85.3976 30.6262C85.0689 29.6438 85.5999 28.5827 86.5823 28.2541C87.5701 27.9245 88.6257 28.4591 88.9544 29.4397L94.5794 46.3184C94.9072 47.3007 94.3771 48.3618 93.3938 48.6896C93.1951 48.7555 92.9965 48.7875 92.7996 48.7875Z" fill="#C8A574"/>
</svg>
